<?xml version="1.0" encoding="UTF-8"?>
<svg width="198px" height="30px" viewBox="0 0 198 30" version="1.1" xmlns="http://www.w3.org/2000/svg" xmlns:xlink="http://www.w3.org/1999/xlink">
    <!-- Generator: Sketch 51.3 (57544) - http://www.bohemiancoding.com/sketch -->
    <title>logo</title>
    <desc>Created with Sketch.</desc>
    <defs></defs>
    <g id="Page-1" stroke="none" stroke-width="1" fill="none" fill-rule="evenodd">
        <g id="01-Main-Menu-New-(144)" transform="translate(-29.000000, -27.000000)" fill="#FFFFFF" fill-rule="nonzero">
            <g id="logo" transform="translate(29.000000, 27.000000)">
                <g id="Group-2">
                    <path d="M16.1717207,9.83406593 L12.9627553,6.65373626 C10.798577,8.78934065 9.45737258,11.7438462 9.45737258,15.0036263 C9.45737258,18.2637363 10.8012414,21.2113186 12.9627553,23.3568132 L16.1717207,20.1721979 C15.3580724,19.3641758 14.7306005,18.366923 14.3645753,17.2552747 L26.4813759,17.2552747 C26.1153506,18.366923 25.487879,19.3641758 24.6715661,20.1721979 L27.883196,23.3568132 C30.0490396,21.2113186 31.3855811,18.2637363 31.3855811,15.0036263 C31.3855811,11.7438462 30.0490396,8.78934065 27.883196,6.65373626 L24.6715661,9.83406593 C25.487879,10.6417582 26.1153506,11.640989 26.4813759,12.7523077 L14.3645753,12.7523077 C14.7306005,11.640989 15.3580724,10.6417582 16.1717207,9.83406593" id="Fill-1"></path>
                    <path d="M31.3522759,3.21725275 C34.4060387,6.23736263 36.2917847,10.4063736 36.2917847,15.0036263 C36.2917847,19.6008791 34.4060387,23.7715384 31.3522759,26.7834065 L34.5632397,29.9706593 C38.4419747,26.133956 40.8399563,20.8407693 40.8399563,15.0036263 C40.8399563,9.16549451 38.4419747,3.8732967 34.5632397,0.0356043956 L31.3522759,3.21725275 Z M9.48967873,3.21725275 L6.27838184,0.0356043956 C2.40530866,3.8732967 0.0046627418,9.16549451 0.0046627418,15.0036263 C0.0046627418,20.8407693 2.40530866,26.133956 6.27838184,29.9706593 L9.49534063,26.789011 C6.44157779,23.7715384 4.55283431,19.6008791 4.55283431,15.0036263 C4.55283431,10.4076923 6.44157779,6.23736263 9.48967873,3.21725275 Z" id="Fill-2"></path>
                </g>
                <g id="Group-3" transform="translate(50.524138, 6.818182)">
                    <path d="M134.840537,7.87965727 L136.74105,4.43152684 L138.620309,7.87965727 L134.840537,7.87965727 Z M130.566977,16.3002075 L132.768508,12.0414868 L140.676027,12.0414868 L143.069341,16.3002075 L147.475862,16.3636364 L141.277075,4.17031998 C140.588046,2.80235513 140.003311,1.85691612 139.531272,1.33350351 C138.766618,0.476964739 137.860104,0.0464478751 136.807779,0.0464478751 C135.730245,0.0464478751 134.798523,0.443002852 134.022007,1.24510272 C133.474343,1.79798227 132.868847,2.7349308 132.204533,4.06044329 L126.010194,16.3636364 L130.566977,16.3002075 Z M120.609177,0 L100.638216,0 L100.638216,4.12786762 L120.203866,4.12786762 L103.140271,7.90113318 C102.191744,8.10390562 101.423136,8.56388941 100.842849,9.28557952 C100.258114,10.0027747 99.9699474,10.8598129 99.9699474,11.8477042 C99.9699474,13.1262694 100.479058,14.1900755 101.502715,15.0341284 C102.47991,15.8317332 103.625161,16.2327832 104.936491,16.2327832 L124.13044,16.2327832 L124.13044,11.9785574 L105.345756,11.9785574 L121.519644,8.37809791 C122.538853,8.14585853 123.365786,7.67738427 123.979684,6.97267511 C124.602479,6.26796595 124.911405,5.4029367 124.911405,4.38957393 C124.911405,3.1354813 124.485334,2.09365046 123.64555,1.25808815 C122.801811,0.417531436 121.794959,0 120.609177,0 Z M80.7483182,0 C79.855151,0 79.1008771,0.0968912665 78.4825306,0.283182207 C77.8602299,0.476964739 77.2646203,0.844552225 76.6882878,1.38844186 C76.1119553,1.93283093 75.70269,2.50269142 75.4560434,3.10201885 C75.2138453,3.6968513 75.0927463,4.40255935 75.0927463,5.21664577 L75.0927463,11.1300097 C75.0927463,11.8262283 75.1846826,12.4090743 75.383384,12.886039 C75.5771424,13.3585088 75.920174,13.8819214 76.4085243,14.4642679 C76.9724997,15.1524956 77.5908462,15.6379507 78.2754266,15.929124 C78.9649496,16.2158022 79.7711231,16.3636364 80.7067986,16.3636364 L97.4634446,16.3636364 L97.4634446,12.0414868 L79.2575643,12.0414868 L79.2575643,10.3194193 L97.4634446,10.2729714 L97.4634446,6.0651935 L79.1488225,6.0651935 L79.1488225,4.17031998 L97.4634446,4.17031998 L97.4634446,0 L80.7483182,0 Z M50.4958028,0.067424335 L50.4958028,4.23324935 L59.7586431,4.23324935 L59.8441539,16.3002075 L63.8834243,16.3002075 L63.8626645,4.17031998 L73.1442876,4.17031998 L73.1442876,0.067424335 L50.4958028,0.067424335 Z M30.0651603,12.1513635 L44.1902504,12.1513635 L44.1902504,4.32165015 L30.0651603,4.32165015 L30.0651603,12.1513635 Z M47.2360146,2.11462692 C47.6363828,2.61256812 47.9289977,3.10201885 48.1084219,3.59196901 C48.2922948,4.07692478 48.382254,4.6382948 48.382254,5.2840701 L48.382254,11.3028157 C48.382254,11.9995339 48.2631321,12.6113473 48.0229111,13.1347599 C47.7871387,13.6581725 47.4045646,14.1900755 46.8761775,14.7299697 C46.3542159,15.2663677 45.8238516,15.6504367 45.2826131,15.8826761 C44.7418688,16.1149155 44.0820027,16.2327832 43.3044974,16.2327832 L31.0181356,16.2327832 C30.167971,16.2327832 29.455711,16.1059256 28.8813555,15.8487142 C28.305023,15.5954984 27.7450018,15.156491 27.1978318,14.5321916 C26.7341956,14.004284 26.4129124,13.4808715 26.2245911,12.9489684 C26.0387412,12.4215602 25.9448276,11.7887704 25.9448276,11.0585898 L25.9448276,4.91298653 C25.9448276,4.19928747 26.0995378,3.55800713 26.4163724,2.99214215 C26.6926759,2.49869591 27.122701,1.9917648 27.7034822,1.47734209 C28.2842631,0.957924995 28.8774014,0.599327422 29.4725166,0.405544889 C30.0696089,0.210763477 30.781869,0.109876694 31.5984224,0.109876694 L43.3736969,0.109876694 C44.1902504,0.109876694 44.9109132,0.274192295 45.5312368,0.599327422 C46.145629,0.928957503 46.7180073,1.43488973 47.2360146,2.11462692 Z" id="Fill-3"></path>
                    <path d="M19.0457003,6.61185048 L4.16001512,6.61185048 C4.55632724,5.09613385 5.36510688,3.74571348 6.45105257,2.72588562 L3.70513968,0 C1.42066536,2.27307405 0,5.40118058 0,8.86789399 C0,12.322085 1.42066536,15.4541986 3.70513968,17.7272727 L6.57676176,14.87466 C5.41003909,13.8247782 4.54824953,12.415252 4.14285001,10.8108764 L19.0583216,10.8108764 C18.6549416,12.4107439 17.7911326,13.8202702 16.6304682,14.87466 L19.5106728,17.7272727 C21.7911083,15.4541986 23.2137931,12.322085 23.2137931,8.86789399 C23.2137931,5.40118058 21.7911083,2.27307405 19.5106728,0 L16.7561774,2.7298928 C17.8380842,3.75472964 18.6468638,5.09613385 19.0457003,6.61185048" id="Fill-5"></path>
                </g>
            </g>
        </g>
    </g>
</svg>