<svg xmlns="http://www.w3.org/2000/svg" width="40" height="27" viewBox="0 0 40 27">
    <path fill="#FFF" fill-rule="nonzero" d="M34.425.794a9.634 9.634 0 0 0-.775.05 10.698 10.698 0 0 0-3.35.868s-4.488 2.001-8.2 3.648l-9.025-2.754a6.904 6.904 0 0 0-1.875-.273c-.619-.01-1.178.043-1.7.273l-1.25.546c-.21.093-.463.242-.6.546-.138.304-.097.673.025.918.237.478.625.726 1.175 1.017l.025.025 5.3 3.201A7549.565 7549.565 0 0 0 7.7 11.74c-.169.073-.169.046-.3 0-.131-.047-.369-.196-.675-.423-1.084-.794-2.688-1.951-3.15-2.308-.713-.54-1.56-.546-2.325-.298-.381.125-.769.332-1.025.745-.256.413-.29 1.011-.075 1.489.534 1.191 2.222 4.876 2.85 6.278.34.76 1.053 1.285 1.925 1.514.872.23 1.922.22 3.175.05 2.506-.344 5.878-1.42 10.125-3.3.334-.15.719-.314 1.075-.472l-1.85 9.703v.05c-.147.592-.222 1.048-.025 1.538.103.251.356.518.675.62.319.103.59.04.8-.05l1.25-.545c.519-.23.944-.627 1.35-1.092a6.884 6.884 0 0 0 1.05-1.588h-.025l5.95-12.78c2.969-1.38 5.819-2.755 7.9-3.921 1.072-.602 1.95-1.148 2.575-1.638.313-.245.55-.469.75-.745.2-.276.419-.729.2-1.216-.497-1.104-1.74-1.923-3.425-2.333a8.095 8.095 0 0 0-2.05-.223zm0 1.588c.613 0 1.175.078 1.675.199 1.153.28 1.856.837 2.15 1.216-.081.084-.14.149-.3.273-.497.39-1.313.909-2.35 1.489-2.072 1.16-4.994 2.578-8.05 3.995l-.275.124-.125.273-6.075 13.054c-.184.4-.462.834-.775 1.19-.313.358-.675.615-.8.67l-.5.224v-.025l2.125-11.241.3-1.49-1.4.621c-.866.385-1.684.754-2.45 1.092-4.166 1.843-7.428 2.87-9.675 3.176-1.122.156-1.994.121-2.55-.024-.556-.146-.778-.35-.9-.62-.631-1.403-2.294-5.091-2.825-6.28-.012-.03-.019-.018-.025-.024a.507.507 0 0 1 .15-.075c.275-.09.781.022.85.075v-.025c.522.4 2.087 1.563 3.175 2.358.319.232.64.487 1.075.645.434.158 1 .149 1.5-.075.228-.099 4.24-1.892 7.7-3.424.028-.013.047.012.075 0a.857.857 0 0 0 .225-.1c.012-.006.012-.018.025-.024l.025-.025c2.666-1.179 3.119-1.384 5.825-2.581a.707.707 0 0 0 .075-.025c.01-.003.016.003.025 0a.804.804 0 0 0 .45-.198l.025-.025c3.678-1.626 8.15-3.599 8.15-3.599 1.012-.446 1.984-.688 2.85-.769.216-.018.422-.025.625-.025zm-23.25 1.539c.475.01 1 .068 1.425.198l7.3 2.21c-1.916.85-2.112.933-3.925 1.736l-6.3-3.797.475-.223c.125-.056.55-.133 1.025-.124z"/>
</svg>
