<svg xmlns="http://www.w3.org/2000/svg" width="37" height="27" viewBox="0 0 37 27">
    <path fill="#FFF" fill-rule="nonzero" d="M4.104.137a1.8 1.8 0 0 0-.34.045c-.454.106-.882.482-1.066.958C2.216 2.374.725 6.231.158 7.685c-.297.764-.15 1.616.295 2.394.445.779 1.174 1.528 2.177 2.304 2.01 1.55 5.15 3.192 9.5 4.902l1.224.48-8.412 5.723-.045.023v.023c-.513.31-.89.567-1.088 1.026-.102.24-.116.587.022.867.14.279.366.421.567.501l1.293.502c.513.202 1.085.222 1.7.182a6.67 6.67 0 0 0 1.836-.365l13.445-4.88c.654.243 1.264.454 1.904.685a2.547 2.547 0 0 0-.635 1.664c0 1.403 1.145 2.554 2.54 2.554 1.394 0 2.539-1.151 2.539-2.554 0-.04.002-.074 0-.114.736.24 1.445.456 2.085.639 1.188.342 2.185.587 2.97.684.394.048.737.074 1.066.023.329-.052.77-.214.952-.684.43-1.11.139-2.569-.748-4.06-.887-1.49-2.451-2.987-4.83-3.922 0 0-4.604-1.813-8.41-3.306l-4.421-8.484a7.017 7.017 0 0 0-1.111-1.55c-.425-.448-.847-.801-1.36-1.004l-1.293-.501a1.068 1.068 0 0 0-.77-.023c-.292.108-.505.37-.59.616-.167.484-.065.923.113 1.527h-.022l1.496 6.294a5685.525 5685.525 0 0 0-6.801-2.668c-.19-.074-.207-.108-.272-.25-.066-.143-.105-.414-.16-.799-.195-1.348-.495-3.332-.566-3.922C6.24 1.352 5.662.724 4.965.365 4.705.23 4.424.13 4.104.137zm-.023 1.46c-.006 0 .085-.006.227.068.277.142.586.573.612.707v.022c.08.67.348 2.6.544 3.946.057.396.108.798.295 1.208a2 2 0 0 0 1.065 1.004c.23.09 4.359 1.704 7.913 3.1a.739.739 0 0 0 .272.115c.03.011.036.011.068.023 2.84 1.114 3.358 1.32 6.212 2.44.022.008.045.017.068.023 3.959 1.553 8.637 3.397 8.637 3.397 2.092.821 3.407 2.098 4.127 3.307.643 1.08.703 2.04.612 2.531-.125.003-.244.006-.476-.023-.64-.08-1.613-.285-2.766-.615-2.304-.662-5.368-1.756-8.547-2.942l-.25-.091-.25.09L8.752 24.88a5.447 5.447 0 0 1-1.45.297c-.485.031-.942-.035-1.089-.092l-.635-.25c.068-.052.02-.035.114-.092l.022-.022 9.59-6.5 1.157-.798-1.293-.501c-.89-.348-1.731-.673-2.516-.981-4.277-1.679-7.318-3.295-9.137-4.698-.91-.7-1.516-1.35-1.814-1.87-.297-.518-.3-.858-.181-1.163.567-1.456 2.06-5.313 2.54-6.544.053-.14.028-.069.022-.069zm9.953 1.436l.635.25c.15.06.527.331.861.685.334.353.652.78.862 1.186l3.65 7c-2.06-.809-2.284-.875-4.24-1.641l-1.746-7.298V3.17c-.028-.1-.008-.057-.022-.137zm12.174 19.589c.386.134.785.305 1.157.433.017.048.04.094.068.137.085.157.136.33.136.524 0 .613-.48 1.095-1.089 1.095s-1.088-.482-1.088-1.095c0-.456.272-.835.658-1.003a.676.676 0 0 0 .158-.091z"/>
</svg>
