<svg id="icon" xmlns="http://www.w3.org/2000/svg" width="100" height="88" viewBox="0 0 100 88">
    <path fill-rule="nonzero" d="M49.77 0a1.953 1.953 0 0 0-1.383.594L23.166 26H4c-1.047 0-2.11.383-2.867 1.133C.375 27.89 0 28.953 0 30v8c0 1.047.375 2.11 1.133 2.867C1.89 41.617 2.953 42 4 42h.313l10.766 35.78c.016.04.032.079.047.126C15.97 80.148 18.111 82 20.798 82H59.56l-1.797-4H20.798c-.914 0-1.57-.555-1.922-1.5L7.712 39.422A2.002 2.002 0 0 0 5.797 38H4v-8h71.584c.313.078.64.078.953 0H96v8h-1.797c-.07 0-.133 0-.203.008-.93.078-1.68.797-1.805 1.718l-4.133 13.25 3.773 1.329L95.68 42H96c1.048 0 2.11-.383 2.868-1.133C99.625 40.11 100 39.047 100 38v-8c0-1.047-.375-2.11-1.133-2.867C98.11 26.383 97.047 26 96 26H76.826L51.207.578A2.013 2.013 0 0 0 49.77 0zm.039 4.828L71.146 26H28.8L49.81 4.828zM50.012 44a1.999 1.999 0 0 0-1.899 2.82l18.002 40a2.002 2.002 0 0 0 1.78 1.18 2.017 2.017 0 0 0 1.837-1.102l4.844-9.703L86.5 87.507c.406.352.938.524 1.469.485a1.988 1.988 0 0 0 1.367-.703l6.196-7.336c.351-.406.516-.938.469-1.469a1.973 1.973 0 0 0-.72-1.36l-12.04-9.991 7.845-5.5a1.99 1.99 0 0 0-.484-3.516l-40.003-14a1.862 1.862 0 0 0-.586-.117zm3.664 5.43L85.6 60.594l-6.805 4.773c-.508.351-.828.93-.851 1.555a2.015 2.015 0 0 0 .718 1.617L91.18 78.914l-3.594 4.25-12.337-10.672a2.012 2.012 0 0 0-1.703-.453 2.02 2.02 0 0 0-1.399 1.062l-4.117 8.235L53.676 49.43z"/>
</svg>
