<svg xmlns="http://www.w3.org/2000/svg" width="142" height="70" viewBox="0 0 142 70">
    <g fill="#FFF" fill-rule="nonzero">
        <path d="M66.976 14.205l-4.59-4.594a16.98 16.98 0 0 0-5.016 12.06c0 4.71 1.923 8.968 5.015 12.067l4.591-4.6a10.652 10.652 0 0 1-2.585-4.214h17.336a10.617 10.617 0 0 1-2.59 4.214l4.595 4.6c3.1-3.1 5.011-7.357 5.011-12.066 0-4.709-1.912-8.976-5.01-12.061l-4.596 4.594a10.624 10.624 0 0 1 2.59 4.215H64.39a10.66 10.66 0 0 1 2.585-4.215"/>
        <path d="M88.696 4.647c4.369 4.363 7.067 10.384 7.067 17.025 0 6.64-2.698 12.665-7.067 17.015l4.594 4.604c5.55-5.542 8.98-13.188 8.98-21.62S98.84 5.596 93.29.052l-4.594 4.596zm-31.28 0L52.822.051c-5.542 5.544-8.976 13.188-8.976 21.62s3.434 16.078 8.976 21.62l4.602-4.596c-4.369-4.358-7.071-10.383-7.071-17.023 0-6.639 2.702-12.662 7.063-17.025zM129.674 60.925l1.832-3.288 1.812 3.288h-3.644zm-4.12 8.028l2.122-4.06h7.623l2.308 4.06 4.248.06-5.976-11.625c-.665-1.304-1.228-2.206-1.683-2.705-.737-.816-1.611-1.227-2.626-1.227-1.039 0-1.937.378-2.685 1.143-.528.527-1.112 1.42-1.753 2.684l-5.971 11.73 4.393-.06zm-9.6-15.541H96.701v3.936h18.862l-16.45 3.597c-.914.194-1.655.632-2.215 1.32-.563.684-.841 1.501-.841 2.443 0 1.22.49 2.233 1.477 3.038.943.76 2.047 1.143 3.31 1.143h18.505v-4.056h-18.11l15.593-3.433c.982-.221 1.78-.668 2.371-1.34.6-.672.899-1.497.899-2.463 0-1.196-.411-2.189-1.22-2.986-.814-.801-1.785-1.2-2.928-1.2zm-38.428 0c-.86 0-1.588.092-2.184.27-.6.185-1.174.535-1.73 1.054-.555.519-.95 1.062-1.188 1.634-.233.567-.35 1.24-.35 2.016v5.638c0 .664.089 1.22.28 1.674.187.45.518.95.989 1.505.543.656 1.14 1.119 1.8 1.397.664.273 1.441.414 2.343.414H93.64v-4.121H76.09V63.25l17.55-.044v-4.012H75.984v-1.807H93.64v-3.976H77.526zm-29.165.064v3.972h8.93l.083 11.505h3.894l-.02-11.565h8.948v-3.912H48.36zM28.665 64.998h13.618v-7.466H28.665v7.466zm16.554-9.57c.386.475.668.942.84 1.409.178.462.265.997.265 1.613v5.739c0 .664-.115 1.247-.346 1.746-.228.5-.597 1.006-1.106 1.521-.503.512-1.014.878-1.536 1.1-.522.22-1.158.333-1.907.333H29.584c-.82 0-1.506-.12-2.06-.366-.555-.242-1.095-.66-1.623-1.255-.447-.504-.757-1.003-.938-1.51-.18-.503-.27-1.106-.27-1.802v-5.86c0-.68.15-1.292.455-1.831.266-.47.68-.954 1.24-1.445.56-.495 1.132-.837 1.706-1.021.576-.186 1.262-.282 2.05-.282h11.351c.788 0 1.482.156 2.08.466.593.315 1.145.797 1.644 1.445zM17.976 59.211H3.926a7.784 7.784 0 0 1 2.163-3.694l-2.592-2.592a11.897 11.897 0 0 0 0 16.853l2.71-2.712a7.757 7.757 0 0 1-2.297-3.863h14.078a7.812 7.812 0 0 1-2.291 3.863l2.718 2.712a11.911 11.911 0 0 0 3.495-8.422 11.91 11.91 0 0 0-3.495-8.43l-2.6 2.594a7.843 7.843 0 0 1 2.161 3.691"/>
    </g>
</svg>
