<svg id="icon" xmlns="http://www.w3.org/2000/svg" width="100" height="100" viewBox="0 0 100 100">
    <path fill-rule="nonzero" d="M50 0C22.41 0 0 22.41 0 50s22.41 50 50 50 50-22.41 50-50S77.59 0 50 0zm0 4.348c25.238 0 45.652 20.414 45.652 45.652S75.238 95.652 50 95.652 4.348 75.238 4.348 50c0-10.674 3.66-20.49 9.782-28.26H50V17.39H18.07a45.117 45.117 0 0 1 5.164-4.348H50V8.696H30.639C36.523 5.936 43.062 4.348 50 4.348zM17.187 26.087l5.64 4.144-1.292 1.766 24.117 17.595c-.008.136 0 .272 0 .408A4.345 4.345 0 0 0 50 54.348a4.357 4.357 0 0 0 4.28-3.533l20.516-6.793-1.359-4.144-20.584 6.93c-.772-.689-1.74-1.156-2.853-1.156v-2.174h-5.299l-5.978-4.348H50v-4.347H32.745l-5.91-4.348H50v-4.348H17.187z"/>
</svg>
