<!-- Generated by IcoMoon.io -->
<svg version="1.1" xmlns="http://www.w3.org/2000/svg" width="416" height="448" viewBox="0 0 416 448">
<title></title>
<path fill="#FFF" d="M192 88v272c0 8.75-7.25 16-16 16-4.25 0-8.25-1.75-11.25-4.75l-83.25-83.25h-65.5c-8.75 0-16-7.25-16-16v-96c0-8.75 7.25-16 16-16h65.5l83.25-83.25c3-3 7-4.75 11.25-4.75 8.75 0 16 7.25 16 16zM288 224c0 25-15.25 49.25-38.75 58.75-2 1-4.25 1.25-6.25 1.25-8.75 0-16-7-16-16 0-19 29-13.75 29-44s-29-25-29-44c0-9 7.25-16 16-16 2 0 4.25 0.25 6.25 1.25 23.5 9.25 38.75 33.75 38.75 58.75zM352 224c0 50.75-30.5 98-77.5 117.75-2 0.75-4.25 1.25-6.25 1.25-9 0-16.25-7.25-16.25-16 0-7 4-11.75 9.75-14.75 6.75-3.5 13-6.5 19-11 24.75-18 39.25-46.75 39.25-77.25s-14.5-59.25-39.25-77.25c-6-4.5-12.25-7.5-19-11-5.75-3-9.75-7.75-9.75-14.75 0-8.75 7.25-16 16-16 2.25 0 4.5 0.5 6.5 1.25 47 19.75 77.5 67 77.5 117.75zM416 224c0 76.75-45.75 146.25-116.25 176.5-2 0.75-4.25 1.25-6.5 1.25-8.75 0-16-7.25-16-16 0-7.25 3.75-11.25 9.75-14.75 3.5-2 7.5-3.25 11.25-5.25 7-3.75 14-8 20.5-12.75 41-30.25 65.25-78 65.25-129s-24.25-98.75-65.25-129c-6.5-4.75-13.5-9-20.5-12.75-3.75-2-7.75-3.25-11.25-5.25-6-3.5-9.75-7.5-9.75-14.75 0-8.75 7.25-16 16-16 2.25 0 4.5 0.5 6.5 1.25 70.5 30.25 116.25 99.75 116.25 176.5z"></path>
</svg>
