<?xml version="1.0" encoding="utf-8"?>
<svg version="1.1" width="416" height="448" viewBox="0 0 416 448" xmlns="http://www.w3.org/2000/svg">
  <path fill="#FFF" d="M 192 88 L 192 360 C 192 368.75 184.75 376 176 376 C 171.75 376 167.75 374.25 164.75 371.25 L 81.5 288 L 16 288 C 7.25 288 0 280.75 0 272 L 0 176 C 0 167.25 7.25 160 16 160 L 81.5 160 L 164.75 76.75 C 167.75 73.75 171.75 72 176 72 C 184.75 72 192 79.25 192 88 Z"/>
  <path fill="#FFF" d="M 385.638 265.296 L 385.638 300 L 353.106 300 L 312.025 256.177 L 270.944 300 L 238.411 300 L 238.411 265.296 L 279.492 221.472 L 238.411 177.649 L 238.411 142.945 L 270.944 142.945 L 312.025 186.768 L 353.106 142.945 L 385.638 142.945 L 385.638 177.649 L 344.557 221.472 L 385.638 265.296 Z" style=""/>
</svg>